<?xml version="1.0" encoding="UTF-8"?>
<svg width="900" height="210" viewBox="0 0 900 210" fill="none" xmlns="http://www.w3.org/2000/svg">
<defs>
  <linearGradient id="fBg" x1="0" y1="0" x2="0" y2="1">
    <stop offset="0%"  stop-color="#010d1f"/>
    <stop offset="100%" stop-color="#020c1b"/>
  </linearGradient>
  <linearGradient id="gb1" x1="0" y1="0" x2="1" y2="1">
    <stop offset="0%"  stop-color="#001a14"/>
    <stop offset="100%" stop-color="#002a1e"/>
  </linearGradient>
  <linearGradient id="gb2" x1="0" y1="0" x2="1" y2="1">
    <stop offset="0%"  stop-color="#100020"/>
    <stop offset="100%" stop-color="#1a0030"/>
  </linearGradient>
  <linearGradient id="gb3" x1="0" y1="0" x2="1" y2="1">
    <stop offset="0%"  stop-color="#1a1000"/>
    <stop offset="100%" stop-color="#261600"/>
  </linearGradient>
  <linearGradient id="sepL" x1="0" y1="0" x2="1" y2="0">
    <stop offset="0%"   stop-color="rgba(0,245,212,0)"/>
    <stop offset="30%"  stop-color="rgba(0,245,212,0.42)"/>
    <stop offset="70%"  stop-color="rgba(0,245,212,0.42)"/>
    <stop offset="100%" stop-color="rgba(0,245,212,0)"/>
  </linearGradient>
</defs>

<!-- Background -->
<rect width="900" height="210" rx="12" fill="url(#fBg)"/>

<!-- Dot grid (sparse) -->
<g fill="rgba(0,245,212,.026)">
  <circle cx="44" cy="22" r=".65"/><circle cx="88" cy="22" r=".65"/><circle cx="132" cy="22" r=".65"/><circle cx="176" cy="22" r=".65"/><circle cx="220" cy="22" r=".65"/><circle cx="264" cy="22" r=".65"/><circle cx="308" cy="22" r=".65"/><circle cx="352" cy="22" r=".65"/><circle cx="396" cy="22" r=".65"/><circle cx="440" cy="22" r=".65"/><circle cx="484" cy="22" r=".65"/><circle cx="528" cy="22" r=".65"/><circle cx="572" cy="22" r=".65"/><circle cx="616" cy="22" r=".65"/><circle cx="660" cy="22" r=".65"/><circle cx="704" cy="22" r=".65"/><circle cx="748" cy="22" r=".65"/><circle cx="792" cy="22" r=".65"/><circle cx="836" cy="22" r=".65"/>
  <circle cx="44" cy="66" r=".65"/><circle cx="132" cy="66" r=".65"/><circle cx="220" cy="66" r=".65"/><circle cx="308" cy="66" r=".65"/><circle cx="396" cy="66" r=".65"/><circle cx="484" cy="66" r=".65"/><circle cx="572" cy="66" r=".65"/><circle cx="660" cy="66" r=".65"/><circle cx="748" cy="66" r=".65"/><circle cx="836" cy="66" r=".65"/>
  <circle cx="44" cy="120" r=".65"/><circle cx="132" cy="120" r=".65"/><circle cx="220" cy="120" r=".65"/><circle cx="308" cy="120" r=".65"/><circle cx="396" cy="120" r=".65"/><circle cx="484" cy="120" r=".65"/><circle cx="572" cy="120" r=".65"/><circle cx="660" cy="120" r=".65"/><circle cx="748" cy="120" r=".65"/><circle cx="836" cy="120" r=".65"/>
  <circle cx="44" cy="162" r=".65"/><circle cx="132" cy="162" r=".65"/><circle cx="220" cy="162" r=".65"/><circle cx="308" cy="162" r=".65"/><circle cx="396" cy="162" r=".65"/><circle cx="484" cy="162" r=".65"/><circle cx="572" cy="162" r=".65"/><circle cx="660" cy="162" r=".65"/><circle cx="748" cy="162" r=".65"/>
</g>

<!-- ── OUTER BORDER ── -->
<rect x="1" y="1" width="898" height="208" rx="11" fill="none" stroke="rgba(0,245,212,.28)" stroke-width="1.5"/>
<rect x="3" y="3" width="894" height="204" rx="10" fill="none" stroke="rgba(0,245,212,.055)" stroke-width=".75"/>

<!-- Corner brackets -->
<path d="M15,1  L1,1  L1,15"   fill="none" stroke="rgba(0,245,212,.62)" stroke-width="1.8" stroke-linecap="round"/>
<path d="M885,1 L899,1 L899,15"  fill="none" stroke="rgba(0,245,212,.62)" stroke-width="1.8" stroke-linecap="round"/>
<path d="M1,195  L1,209 L15,209"  fill="none" stroke="rgba(0,245,212,.62)" stroke-width="1.8" stroke-linecap="round"/>
<path d="M899,195 L899,209 L885,209" fill="none" stroke="rgba(0,245,212,.62)" stroke-width="1.8" stroke-linecap="round"/>

<!-- ═══════════ TOP BAR ═══════════ -->

<!-- Status dot -->
<circle cx="22" cy="24" r="4" fill="#4ade80">
  <animate attributeName="r"       values="3.5;4.5;3.5" dur="2s" repeatCount="indefinite"/>
  <animate attributeName="opacity" values="1;.6;1"       dur="2s" repeatCount="indefinite"/>
</circle>
<circle cx="22" cy="24" r="8" fill="none" stroke="#4ade80" stroke-width=".8">
  <animate attributeName="r"       values="5;11;5"    dur="2s" repeatCount="indefinite"/>
  <animate attributeName="opacity" values=".3;0;.3"   dur="2s" repeatCount="indefinite"/>
</circle>
<text x="34" y="20" font-family="Arial,sans-serif" font-size="8.5" font-weight="700" fill="#4ade80" letter-spacing="2.5">ACTIVELY INTERVIEWING</text>
<text x="34" y="32" font-family="Courier New,monospace" font-size="7.5" fill="rgba(74,222,128,.42)" letter-spacing="1.5">FULL-TIME SWE  ·  JUNE 2026</text>

<!-- Name -->
<text x="450" y="19" text-anchor="middle" font-family="Arial,sans-serif" font-size="13.5" font-weight="900" fill="rgba(0,245,212,.9)" letter-spacing="4">MUSHARAF KHAN PATHAN</text>
<text x="352" y="34" text-anchor="middle" font-family="Courier New,monospace" font-size="8.5" font-weight="700" fill="rgba(0,245,212,.58)" letter-spacing="2.5">BUILD</text>
<text x="450" y="34" text-anchor="middle" font-family="Courier New,monospace" font-size="8.5" font-weight="700" fill="rgba(168,85,247,.58)" letter-spacing="2.5">SECURE</text>
<text x="548" y="34" text-anchor="middle" font-family="Courier New,monospace" font-size="8.5" font-weight="700" fill="rgba(245,158,11,.58)" letter-spacing="2.5">SCALE</text>
<line x1="400" y1="26" x2="400" y2="38" stroke="rgba(0,245,212,.18)" stroke-width="1"/>
<line x1="500" y1="26" x2="500" y2="38" stroke="rgba(0,245,212,.18)" stroke-width="1"/>

<!-- IIT badge -->
<rect x="790" y="11" width="96" height="27" rx="5" fill="rgba(0,245,212,.05)" stroke="rgba(0,245,212,.2)" stroke-width="1"/>
<text x="838" y="22" text-anchor="middle" font-family="Arial,sans-serif" font-size="8" font-weight="700" fill="rgba(0,245,212,.65)" letter-spacing="1.5">IIT CHICAGO</text>
<text x="838" y="33" text-anchor="middle" font-family="Courier New,monospace" font-size="7.5" fill="rgba(71,85,105,.5)" letter-spacing="1">BS CS · 2026</text>

<!-- Online -->
<circle cx="892" cy="10" r="2.5" fill="#4ade80" opacity=".45">
  <animate attributeName="opacity" values=".45;.9;.45" dur="2.2s" repeatCount="indefinite"/>
</circle>
<text x="886" y="10" text-anchor="end" font-family="Courier New,monospace" font-size="7" fill="rgba(0,245,212,.25)" dominant-baseline="middle" letter-spacing="1.5">ONLINE</text>

<!-- Separator -->
<line x1="14" y1="46" x2="886" y2="46" stroke="url(#sepL)" stroke-width="1"/>

<!-- CONNECT label -->
<text x="450" y="63" text-anchor="middle" font-family="Courier New,monospace" font-size="8.5" font-weight="700" fill="rgba(0,245,212,.38)" letter-spacing="5">CONNECT</text>
<line x1="220" y1="60" x2="366" y2="60" stroke="rgba(0,245,212,.09)" stroke-width=".8"/>
<line x1="534" y1="60" x2="680" y2="60" stroke="rgba(0,245,212,.09)" stroke-width=".8"/>

<!-- ═══════════ BUTTON 1 — PORTFOLIO ═══════════ -->
<!-- Outer pulse ring -->
<rect x="51" y="70" width="258" height="68" rx="11" fill="none" stroke="rgba(0,245,212,.1)" stroke-width="1">
  <animate attributeName="stroke-opacity" values=".1;.35;.1" dur="2.8s" repeatCount="indefinite"/>
</rect>
<!-- Body fill -->
<rect x="54" y="73" width="252" height="62" rx="9" fill="url(#gb1)"/>
<!-- Border static -->
<rect x="54.75" y="73.75" width="250.5" height="60.5" rx="8.5" fill="none" stroke="#00f5d4" stroke-width="1.5" stroke-opacity=".6"/>
<!-- Top edge glow -->
<rect x="55" y="74" width="250" height="2" rx="1" fill="#00f5d4" opacity=".14"/>
<!-- Border pulse -->
<rect x="54.75" y="73.75" width="250.5" height="60.5" rx="8.5" fill="none" stroke="#00f5d4" stroke-width="1">
  <animate attributeName="stroke-opacity" values=".3;.85;.3" dur="2.5s" repeatCount="indefinite"/>
</rect>
<!-- Icon -->
<rect x="68" y="87" width="24" height="24" rx="6" fill="rgba(0,245,212,.1)" stroke="#00f5d4" stroke-width="1" stroke-opacity=".4"/>
<text x="80" y="100" text-anchor="middle" dominant-baseline="middle" font-size="11" font-family="Arial,sans-serif" fill="#00f5d4" opacity=".75">🌐</text>
<!-- Text -->
<text x="103" y="91" font-family="Courier New,monospace" font-size="11" font-weight="700" fill="#00f5d4" letter-spacing="1.5">PORTFOLIO</text>
<text x="103" y="105" font-family="Courier New,monospace" font-size="9" fill="rgba(148,163,184,.55)" letter-spacing=".5">musharafportfolio.vercel.app</text>
<!-- Arrow -->
<text x="291" y="104" text-anchor="middle" dominant-baseline="middle" font-size="16" font-family="Arial,sans-serif" fill="#00f5d4" opacity=".55">→</text>
<!-- Shimmer -->
<rect x="54" y="73" width="58" height="62" rx="9" fill="rgba(0,245,212,.035)">
  <animateTransform attributeName="transform" type="translate" values="-58,0;254,0;-58,0" dur="3s" repeatCount="indefinite"/>
</rect>

<!-- ═══════════ BUTTON 2 — LINKEDIN ═══════════ -->
<rect x="321" y="70" width="258" height="68" rx="11" fill="none" stroke="rgba(168,85,247,.1)" stroke-width="1">
  <animate attributeName="stroke-opacity" values=".1;.35;.1" dur="3.1s" repeatCount="indefinite" begin=".8s"/>
</rect>
<rect x="324" y="73" width="252" height="62" rx="9" fill="url(#gb2)"/>
<rect x="324.75" y="73.75" width="250.5" height="60.5" rx="8.5" fill="none" stroke="#a855f7" stroke-width="1.5" stroke-opacity=".6"/>
<rect x="325" y="74" width="250" height="2" rx="1" fill="#a855f7" opacity=".14"/>
<rect x="324.75" y="73.75" width="250.5" height="60.5" rx="8.5" fill="none" stroke="#a855f7" stroke-width="1">
  <animate attributeName="stroke-opacity" values=".3;.85;.3" dur="2.5s" begin=".8s" repeatCount="indefinite"/>
</rect>
<!-- LinkedIn in icon -->
<rect x="338" y="87" width="24" height="24" rx="6" fill="rgba(168,85,247,.1)" stroke="#a855f7" stroke-width="1" stroke-opacity=".4"/>
<text x="350" y="100" text-anchor="middle" dominant-baseline="middle" font-size="11" font-weight="900" font-family="Arial,sans-serif" fill="#a855f7" letter-spacing="-.5">in</text>
<text x="373" y="91" font-family="Courier New,monospace" font-size="11" font-weight="700" fill="#a855f7" letter-spacing="1.5">LINKEDIN</text>
<text x="373" y="105" font-family="Courier New,monospace" font-size="9" fill="rgba(148,163,184,.55)" letter-spacing=".5">in/musharaf-khan-pathan</text>
<text x="561" y="104" text-anchor="middle" dominant-baseline="middle" font-size="16" font-family="Arial,sans-serif" fill="#a855f7" opacity=".55">→</text>
<rect x="324" y="73" width="58" height="62" rx="9" fill="rgba(168,85,247,.035)">
  <animateTransform attributeName="transform" type="translate" values="-58,0;254,0;-58,0" dur="3s" begin="1s" repeatCount="indefinite"/>
</rect>

<!-- ═══════════ BUTTON 3 — EMAIL ═══════════ -->
<rect x="591" y="70" width="258" height="68" rx="11" fill="none" stroke="rgba(245,158,11,.1)" stroke-width="1">
  <animate attributeName="stroke-opacity" values=".1;.35;.1" dur="2.5s" repeatCount="indefinite" begin="1.6s"/>
</rect>
<rect x="594" y="73" width="252" height="62" rx="9" fill="url(#gb3)"/>
<rect x="594.75" y="73.75" width="250.5" height="60.5" rx="8.5" fill="none" stroke="#f59e0b" stroke-width="1.5" stroke-opacity=".6"/>
<rect x="595" y="74" width="250" height="2" rx="1" fill="#f59e0b" opacity=".14"/>
<rect x="594.75" y="73.75" width="250.5" height="60.5" rx="8.5" fill="none" stroke="#f59e0b" stroke-width="1">
  <animate attributeName="stroke-opacity" values=".3;.85;.3" dur="2.5s" begin="1.6s" repeatCount="indefinite"/>
</rect>
<rect x="608" y="87" width="24" height="24" rx="6" fill="rgba(245,158,11,.1)" stroke="#f59e0b" stroke-width="1" stroke-opacity=".4"/>
<text x="620" y="100" text-anchor="middle" dominant-baseline="middle" font-size="11" font-family="Arial,sans-serif" fill="#f59e0b" opacity=".85">✉</text>
<text x="643" y="91" font-family="Courier New,monospace" font-size="11" font-weight="700" fill="#f59e0b" letter-spacing="1.5">DIRECT CONTACT</text>
<text x="643" y="105" font-family="Courier New,monospace" font-size="9" fill="rgba(148,163,184,.55)" letter-spacing=".5">mpathan2work@gmail.com</text>
<text x="831" y="104" text-anchor="middle" dominant-baseline="middle" font-size="16" font-family="Arial,sans-serif" fill="#f59e0b" opacity=".55">→</text>
<rect x="594" y="73" width="58" height="62" rx="9" fill="rgba(245,158,11,.035)">
  <animateTransform attributeName="transform" type="translate" values="-58,0;254,0;-58,0" dur="3s" begin="2s" repeatCount="indefinite"/>
</rect>

<!-- ═══════════ BOTTOM SIGNATURE ═══════════ -->
<line x1="14" y1="148" x2="886" y2="148" stroke="rgba(0,245,212,.07)" stroke-width="1"/>

<!-- Left waveform -->
<g transform="translate(20,168)">
  <rect x="0"  y="-5" width="2.2" height="5" rx="1" fill="#00f5d4" opacity=".3">
    <animate attributeName="height" values="3;9;2;7;3"     dur="1.1s" repeatCount="indefinite"/>
    <animate attributeName="y"      values="-3;-9;-2;-7;-3" dur="1.1s" repeatCount="indefinite"/>
  </rect>
  <rect x="5"  y="-6" width="2.2" height="6" rx="1" fill="#00f5d4" opacity=".36">
    <animate attributeName="height" values="7;3;10;4;7"     dur=".9s"  repeatCount="indefinite" begin=".11s"/>
    <animate attributeName="y"      values="-7;-3;-10;-4;-7" dur=".9s"  repeatCount="indefinite" begin=".11s"/>
  </rect>
  <rect x="10" y="-4" width="2.2" height="4" rx="1" fill="#00f5d4" opacity=".28">
    <animate attributeName="height" values="4;11;3;8;4"     dur="1.3s" repeatCount="indefinite" begin=".22s"/>
    <animate attributeName="y"      values="-4;-11;-3;-8;-4" dur="1.3s" repeatCount="indefinite" begin=".22s"/>
  </rect>
  <rect x="15" y="-7" width="2.2" height="7" rx="1" fill="#a855f7" opacity=".28">
    <animate attributeName="height" values="9;3;7;2;9"     dur=".82s" repeatCount="indefinite" begin=".08s"/>
    <animate attributeName="y"      values="-9;-3;-7;-2;-9" dur=".82s" repeatCount="indefinite" begin=".08s"/>
  </rect>
  <rect x="20" y="-5" width="2.2" height="5" rx="1" fill="#a855f7" opacity=".24">
    <animate attributeName="height" values="5;9;2;11;5"     dur="1.2s" repeatCount="indefinite" begin=".31s"/>
    <animate attributeName="y"      values="-5;-9;-2;-11;-5" dur="1.2s" repeatCount="indefinite" begin=".31s"/>
  </rect>
</g>

<!-- Signature text -->
<text x="450" y="162" text-anchor="middle" font-family="Courier New,monospace" font-size="7.5" fill="rgba(148,163,184,.32)" letter-spacing="2">MUSHARAF KHAN PATHAN</text>
<text x="450" y="174" text-anchor="middle" font-family="Courier New,monospace" font-size="7" fill="rgba(71,85,105,.32)" letter-spacing="1.5">Chicago, IL  ·  github.com/Apple-beep  ·  mpathan2work@gmail.com</text>
<text x="450" y="186" text-anchor="middle" font-family="Courier New,monospace" font-size="7" fill="rgba(71,85,105,.2)" letter-spacing="1">IIT · BS CS 2026  ·  Full-Time SWE 2026</text>

<!-- Right waveform -->
<g transform="translate(858,168)">
  <rect x="0"  y="-6" width="2.2" height="6" rx="1" fill="#f59e0b" opacity=".28">
    <animate attributeName="height" values="6;2;9;4;6"     dur="1.15s" repeatCount="indefinite" begin=".35s"/>
    <animate attributeName="y"      values="-6;-2;-9;-4;-6" dur="1.15s" repeatCount="indefinite" begin=".35s"/>
  </rect>
  <rect x="5"  y="-4" width="2.2" height="4" rx="1" fill="#f59e0b" opacity=".32">
    <animate attributeName="height" values="3;10;2;8;3"     dur=".95s" repeatCount="indefinite" begin=".19s"/>
    <animate attributeName="y"      values="-3;-10;-2;-8;-3" dur=".95s" repeatCount="indefinite" begin=".19s"/>
  </rect>
  <rect x="10" y="-8" width="2.2" height="8" rx="1" fill="#f59e0b" opacity=".26">
    <animate attributeName="height" values="8;3;5;10;8"     dur="1.3s" repeatCount="indefinite" begin=".44s"/>
    <animate attributeName="y"      values="-8;-3;-5;-10;-8" dur="1.3s" repeatCount="indefinite" begin=".44s"/>
  </rect>
  <rect x="15" y="-5" width="2.2" height="5" rx="1" fill="#00f5d4" opacity=".24">
    <animate attributeName="height" values="4;8;2;9;4"     dur="1.05s" repeatCount="indefinite" begin=".15s"/>
    <animate attributeName="y"      values="-4;-8;-2;-9;-4" dur="1.05s" repeatCount="indefinite" begin=".15s"/>
  </rect>
  <rect x="20" y="-7" width="2.2" height="7" rx="1" fill="#00f5d4" opacity=".22">
    <animate attributeName="height" values="9;4;6;2;9"     dur=".88s" repeatCount="indefinite" begin=".4s"/>
    <animate attributeName="y"      values="-9;-4;-6;-2;-9" dur=".88s" repeatCount="indefinite" begin=".4s"/>
  </rect>
</g>

</svg>
