<svg width="1200" height="430" viewBox="0 0 1200 430" fill="none" xmlns="http://www.w3.org/2000/svg">
  <defs>
    <linearGradient id="bg" x1="0" y1="0" x2="1200" y2="430" gradientUnits="userSpaceOnUse">
      <stop offset="0" stop-color="#061127"/>
      <stop offset="1" stop-color="#072546"/>
    </linearGradient>
    <linearGradient id="card" x1="0" y1="0" x2="1" y2="1">
      <stop offset="0" stop-color="#11345A"/>
      <stop offset="1" stop-color="#0D2A49"/>
    </linearGradient>
    <filter id="glow" x="-25%" y="-25%" width="150%" height="150%">
      <feGaussianBlur stdDeviation="4" result="g"/>
      <feMerge>
        <feMergeNode in="g"/>
        <feMergeNode in="SourceGraphic"/>
      </feMerge>
    </filter>
  </defs>

  <rect width="1200" height="430" rx="20" fill="url(#bg)"/>

  <text x="40" y="44" fill="#D8ECFF" font-family="'Space Grotesk', 'Segoe UI', sans-serif" font-size="44" font-weight="700">IMPACT://HIGH_SIGNAL</text>
  <line x1="40" y1="58" x2="1160" y2="58" stroke="#255A88" stroke-opacity="0.7"/>

  <g transform="translate(40 78)">
    <rect width="378" height="312" rx="16" fill="#091B35" stroke="#225A8A"/>
    <text x="26" y="36" fill="#9FC7EA" font-family="'JetBrains Mono', Menlo, monospace" font-size="24">IMPACT://RADAR_SCAN</text>

    <circle cx="190" cy="170" r="118" stroke="#1D5D8D" stroke-width="2"/>
    <circle cx="190" cy="170" r="88" stroke="#1D5D8D" stroke-width="1.5"/>
    <circle cx="190" cy="170" r="58" stroke="#1D5D8D" stroke-width="1.2"/>
    <circle cx="190" cy="170" r="28" stroke="#1D5D8D" stroke-width="1"/>
    <path d="M190 52V288M72 170H308" stroke="#1D5D8D"/>

    <path d="M190 170L294 104A118 118 0 0 1 234 276Z" fill="#58F6CE" fill-opacity="0.2">
      <animateTransform attributeName="transform" type="rotate" from="0 190 170" to="360 190 170" dur="6.5s" repeatCount="indefinite"/>
    </path>

    <circle cx="254" cy="126" r="6" fill="#2BD7FF" filter="url(#glow)">
      <animate attributeName="opacity" values="0.55;1;0.55" dur="2.5s" repeatCount="indefinite"/>
    </circle>
    <circle cx="184" cy="224" r="6" fill="#5CF6CF" filter="url(#glow)">
      <animate attributeName="opacity" values="0.55;1;0.55" dur="3s" repeatCount="indefinite"/>
    </circle>
    <circle cx="106" cy="228" r="6" fill="#8B93FF" filter="url(#glow)">
      <animate attributeName="opacity" values="0.55;1;0.55" dur="2.2s" repeatCount="indefinite"/>
    </circle>
  </g>

  <g transform="translate(446 78)">
    <rect width="714" height="312" rx="16" fill="#081A32" stroke="#225A8A"/>

    <rect x="22" y="22" width="324" height="124" rx="14" fill="url(#card)"/>
    <text x="40" y="54" fill="#9FC7EA" font-family="'JetBrains Mono', Menlo, monospace" font-size="18">DEPLOYMENT IMPACT</text>
    <text x="40" y="96" fill="#F0F9FF" font-family="'Space Grotesk', 'Segoe UI', sans-serif" font-size="56" font-weight="800">4h -> 15m</text>
    <text x="40" y="124" fill="#9CC2E6" font-family="'IBM Plex Sans', Arial, sans-serif" font-size="22">Release workflow acceleration</text>

    <rect x="368" y="22" width="324" height="124" rx="14" fill="url(#card)"/>
    <text x="386" y="54" fill="#9FC7EA" font-family="'JetBrains Mono', Menlo, monospace" font-size="18">SECURITY IMPACT</text>
    <text x="386" y="96" fill="#F0F9FF" font-family="'Space Grotesk', 'Segoe UI', sans-serif" font-size="56" font-weight="800">92% / -84%</text>
    <text x="386" y="124" fill="#9CC2E6" font-family="'IBM Plex Sans', Arial, sans-serif" font-size="22">Detection accuracy and risky-click drop</text>

    <rect x="22" y="166" width="670" height="124" rx="14" fill="url(#card)"/>
    <text x="40" y="198" fill="#9FC7EA" font-family="'JetBrains Mono', Menlo, monospace" font-size="18">LEADERSHIP SIGNAL</text>
    <text x="40" y="240" fill="#F0F9FF" font-family="'Space Grotesk', 'Segoe UI', sans-serif" font-size="56" font-weight="800">100+ Students Mentored</text>
    <text x="40" y="268" fill="#9CC2E6" font-family="'IBM Plex Sans', Arial, sans-serif" font-size="22">Systems programming and Java OOP coaching</text>
  </g>

  <rect x="1.5" y="1.5" width="1197" height="427" rx="18.5" stroke="#2FAFE9" stroke-opacity="0.25" stroke-width="3"/>
</svg>
