<svg width="1200" height="340" viewBox="0 0 1200 340" fill="none" xmlns="http://www.w3.org/2000/svg">
  <defs>
    <linearGradient id="bg" x1="0" y1="0" x2="1200" y2="340" gradientUnits="userSpaceOnUse">
      <stop offset="0" stop-color="#060F21"/>
      <stop offset="1" stop-color="#08284A"/>
    </linearGradient>
    <linearGradient id="bar" x1="0" y1="0" x2="1" y2="0">
      <stop offset="0" stop-color="#26D8FF"/>
      <stop offset="0.5" stop-color="#54F8CB"/>
      <stop offset="1" stop-color="#8D92FF"/>
    </linearGradient>
    <style>
      .playhead { animation: move 6.2s linear infinite; }
      .beat1 { animation: beat1 1.8s ease-in-out infinite; }
      .beat2 { animation: beat2 2.2s ease-in-out infinite; }
      .beat3 { animation: beat3 1.5s ease-in-out infinite; }
      .beat4 { animation: beat4 2.4s ease-in-out infinite; }
      @keyframes move {
        0% { transform: translateX(0px); opacity: 0.2; }
        10% { opacity: 0.6; }
        90% { opacity: 0.6; }
        100% { transform: translateX(980px); opacity: 0.2; }
      }
      @keyframes beat1 { 0%,100% { opacity: 0.4; } 50% { opacity: 1; } }
      @keyframes beat2 { 0%,100% { opacity: 0.35; } 50% { opacity: 0.95; } }
      @keyframes beat3 { 0%,100% { opacity: 0.45; } 50% { opacity: 1; } }
      @keyframes beat4 { 0%,100% { opacity: 0.3; } 50% { opacity: 0.9; } }
    </style>
  </defs>

  <rect width="1200" height="340" rx="18" fill="url(#bg)"/>

  <text x="34" y="48" fill="#A8D3F8" font-family="'JetBrains Mono', Menlo, monospace" font-size="24">RHYTHM://GRID_ENGINE</text>
  <text x="34" y="78" fill="#89AFD2" font-family="'IBM Plex Sans', Arial, sans-serif" font-size="18">Commit cadence transformed into sequencer lanes.</text>

  <g transform="translate(34 106)">
    <rect x="0" y="0" width="1132" height="196" rx="12" fill="#0B1D37" stroke="#1D426B"/>
    <g>
      <rect x="18" y="24" width="1080" height="148" rx="8" fill="#0C223E"/>

      <g fill="#122B47">
        <rect x="36" y="40" width="24" height="24" rx="6"/>
        <rect x="68" y="40" width="24" height="24" rx="6"/>
        <rect x="100" y="40" width="24" height="24" rx="6"/>
        <rect x="132" y="40" width="24" height="24" rx="6"/>
        <rect x="164" y="40" width="24" height="24" rx="6"/>
        <rect x="196" y="40" width="24" height="24" rx="6"/>
        <rect x="228" y="40" width="24" height="24" rx="6"/>
        <rect x="260" y="40" width="24" height="24" rx="6"/>
        <rect x="292" y="40" width="24" height="24" rx="6"/>
        <rect x="324" y="40" width="24" height="24" rx="6"/>
        <rect x="356" y="40" width="24" height="24" rx="6"/>
        <rect x="388" y="40" width="24" height="24" rx="6"/>
        <rect x="420" y="40" width="24" height="24" rx="6"/>
        <rect x="452" y="40" width="24" height="24" rx="6"/>
        <rect x="484" y="40" width="24" height="24" rx="6"/>
        <rect x="516" y="40" width="24" height="24" rx="6"/>
        <rect x="548" y="40" width="24" height="24" rx="6"/>
        <rect x="580" y="40" width="24" height="24" rx="6"/>
        <rect x="612" y="40" width="24" height="24" rx="6"/>
        <rect x="644" y="40" width="24" height="24" rx="6"/>
        <rect x="676" y="40" width="24" height="24" rx="6"/>
        <rect x="708" y="40" width="24" height="24" rx="6"/>
        <rect x="740" y="40" width="24" height="24" rx="6"/>
        <rect x="772" y="40" width="24" height="24" rx="6"/>
        <rect x="804" y="40" width="24" height="24" rx="6"/>
        <rect x="836" y="40" width="24" height="24" rx="6"/>
        <rect x="868" y="40" width="24" height="24" rx="6"/>
        <rect x="900" y="40" width="24" height="24" rx="6"/>
        <rect x="932" y="40" width="24" height="24" rx="6"/>
        <rect x="964" y="40" width="24" height="24" rx="6"/>
        <rect x="996" y="40" width="24" height="24" rx="6"/>
        <rect x="1028" y="40" width="24" height="24" rx="6"/>
      </g>

      <g fill="#122B47">
        <rect x="36" y="74" width="24" height="24" rx="6"/>
        <rect x="100" y="74" width="24" height="24" rx="6"/>
        <rect x="164" y="74" width="24" height="24" rx="6"/>
        <rect x="228" y="74" width="24" height="24" rx="6"/>
        <rect x="292" y="74" width="24" height="24" rx="6"/>
        <rect x="356" y="74" width="24" height="24" rx="6"/>
        <rect x="420" y="74" width="24" height="24" rx="6"/>
        <rect x="484" y="74" width="24" height="24" rx="6"/>
        <rect x="548" y="74" width="24" height="24" rx="6"/>
        <rect x="612" y="74" width="24" height="24" rx="6"/>
        <rect x="676" y="74" width="24" height="24" rx="6"/>
        <rect x="740" y="74" width="24" height="24" rx="6"/>
        <rect x="804" y="74" width="24" height="24" rx="6"/>
        <rect x="868" y="74" width="24" height="24" rx="6"/>
        <rect x="932" y="74" width="24" height="24" rx="6"/>
        <rect x="996" y="74" width="24" height="24" rx="6"/>
      </g>

      <g>
        <rect class="beat1" x="132" y="40" width="24" height="24" rx="6" fill="url(#bar)"/>
        <rect class="beat2" x="260" y="74" width="24" height="24" rx="6" fill="url(#bar)"/>
        <rect class="beat3" x="388" y="108" width="24" height="24" rx="6" fill="url(#bar)"/>
        <rect class="beat4" x="516" y="142" width="24" height="24" rx="6" fill="url(#bar)"/>
        <rect class="beat1" x="676" y="108" width="24" height="24" rx="6" fill="url(#bar)"/>
        <rect class="beat2" x="772" y="74" width="24" height="24" rx="6" fill="url(#bar)"/>
        <rect class="beat3" x="900" y="40" width="24" height="24" rx="6" fill="url(#bar)"/>
        <rect class="beat4" x="996" y="142" width="24" height="24" rx="6" fill="url(#bar)"/>
      </g>

      <rect class="playhead" x="30" y="34" width="40" height="160" rx="8" fill="url(#bar)" opacity="0.35"/>
    </g>

    <text x="24" y="190" fill="#8CB3D8" font-family="'JetBrains Mono', Menlo, monospace" font-size="15">Mode: SHIP / Tempo: 116 BPM / Source: GitHub activity signals</text>
  </g>
</svg>
